#!OML:ASF I:\Actors\actors\Patient Classification 1\Patient 1\Session 1\Subject1.ASF
:FULLY-SPECIFIED
:DEGREES
1213
root 0.0994252 18.6025 8.7569 19.3807 -10.1536 -8.45301
lowerback 4.23269 -0.416609 3.29743
upperback -3.42544 0.014259 6.84796
thorax -5.97318 0.018266 5.34479
lowerneck -0.638388 -11.3336 -12.5253
upperneck 16.3435 -16.2029 9.13287
head 6.86317 -8.05822 3.72586
rclavicle 1.59028e-014 2.22639e-014
rhumerus -39.5901 15.4058 -98.398
rradius 143.717
rwrist -53.865
rhand 66.7229 -68.1063
rfingers 7.12502
rthumb 74.6322 -11.0413
lclavicle 1.59028e-014 2.22639e-014
lhumerus -51.8521 -15.111 115.839
lradius 140.536
lwrist 57.8869
lhand 76.5491 -2.86587
lfingers 7.12502
lthumb 70.1602 -1888.08
rfemur 0 0 0
rtibia 0
rfoot 0 0
rtoes 0
lfemur -30.6129 -66.0911 11.5304
ltibia 22.0575
lfoot -96.998 42.8134
ltoes -35.6278
1214
root 0.102668 18.6041 8.76168 19.3388 -9.82684 -8.27608
lowerback 4.09625 -0.520742 3.2941
upperback -3.59242 -0.109456 7.14156
thorax -6.06642 -0.0352075 5.67819
lowerneck -0.401383 -11.1851 -12.4164
upperneck 16.1832 -15.8823 8.35925
head 6.6634 -7.95257 3.51974
rclavicle 6.36111e-015 2.38542e-014
rhumerus -39.6784 16.1393 -98.1737
rradius 143.734
rwrist -53.8174
rhand 66.7804 -67.4886
rfingers 7.12502
rthumb 74.6201 -10.2191
lclavicle 6.36111e-015 2.38542e-014
lhumerus -51.8075 -15.1384 115.682
lradius 140.602
lwrist 58.0493
lhand 76.5839 -1.93202
lfingers 7.12502
lthumb 70.1377 -1887.22
rfemur 0 0 0
rtibia 0
rfoot 0 0
rtoes 0
lfemur -30.6777 -65.8427 11.4302
ltibia 21.9978
lfoot -96.2543 43.2183
ltoes -36.0416
1215
root 0.108551 18.6051 8.76817 19.219 -9.48309 -8.0739
lowerback 4.06209 -0.503445 3.54943
upperback -3.69073 -0.05242 7.35187
thorax -6.1591 -0.0120376 5.75853
lowerneck -0.416542 -11.1422 -12.3859
upperneck 16.1068 -15.6957 7.65359
head 6.56382 -7.90138 3.31453
rclavicle 6.75868e-015 -1.59028e-014
rhumerus -39.7555 16.663 -98.0738
rradius 143.752
rwrist -53.5014
rhand 66.6242 -67.3077
rfingers 7.12502
rthumb 74.6525 -10.5941
lclavicle 6.75868e-015 -1.59028e-014
lhumerus -51.506 -15.5038 115.248
lradius 140.614
lwrist 58.0383
lhand 76.6036 -1.59766
lfingers 7.12502
lthumb 70.125 -1886.93
rfemur 0 0 0
rtibia 0
rfoot 0 0
rtoes 0
lfemur -30.5006 -65.5519 11.0673
ltibia 21.9112
lfoot -95.3543 43.692
ltoes -36.5116
1216
root 0.115393 18.6055 8.77513 19.0949 -9.13444 -7.82085
lowerback 4.0429 -0.175976 4.13311
upperback -3.57395 0.42447 7.47533
thorax -6.05908 0.202117 5.51154
lowerneck -1.46077 -11.4833 -12.6117
upperneck 16.3771 -15.9392 7.03871
head 6.82675 -8.0339 3.05535
rclavicle 1.78906e-015 7.95139e-015
rhumerus -39.4546 16.4588 -97.4714
rradius 143.826
rwrist -53.3418
rhand 66.4196 -67.6099
rfingers 7.12502
rthumb 74.6928 -11.6281
lclavicle 1.78906e-015 7.95139e-015
lhumerus -50.6559 -16.7012 114.861
lradius 140.445
lwrist 57.8939
lhand 76.8188 -1.73159
lfingers 7.12502
lthumb 69.9851 -1887.51
rfemur 0 0 0
rtibia 0
rfoot 0 0
rtoes 0
lfemur -30.2959 -65.1641 10.6017
ltibia 21.8209
lfoot -94.2607 44.2785
ltoes -37.1014
1217
root 0.121991 18.6072 8.78362 18.9368 -8.80421 -7.48026
lowerback 4.00122 0.085768 4.57598
upperback -3.46655 0.80218 7.6403
thorax -5.9457 0.374855 5.40004
lowerneck -2.2752 -11.6566 -12.798
upperneck 16.4907 -15.9585 6.39989
head 6.97086 -8.06906 2.82407
rclavicle -3.33958e-014 -2.8625e-014
rhumerus -39.2047 16.3965 -96.9294
rradius 143.791
rwrist -53.3288
rhand 66.6639 -67.6693
rfingers 7.12502
rthumb 74.6444 -10.8143
lclavicle -3.33958e-014 -2.8625e-014
lhumerus -49.8166 -17.6025 114.318
lradius 140.323
lwrist 57.6022
lhand 77.3415 -1.86068
lfingers 7.12502
lthumb 69.6399 -1888.71
rfemur 0 0 0
rtibia 0
rfoot 0 0
rtoes 0
lfemur -29.8065 -64.457 9.72783
ltibia 21.7165
lfoot -92.5941 45.1012
ltoes -38.0047
1218
root 0.127662 18.6104 8.78982 18.7217 -8.43345 -7.07667
lowerback 4.04336 0.0984809 4.74149
upperback -3.4639 0.847504 7.88674
thorax -5.97531 0.396473 5.56989
lowerneck -2.4188 -11.4075 -12.9329
upperneck 16.3009 -15.493 5.92777
head 6.86201 -7.8796 2.74305
rclavicle 2.46493e-014 1.11319e-014
rhumerus -39.1283 16.893 -96.7484
rradius 143.641
rwrist -53.43
rhand 66.8658 -67.7894
rfingers 7.12502
rthumb 74.6017 -10.2168
lclavicle 2.46493e-014 1.11319e-014
lhumerus -49.3884 -17.7507 113.677
lradius 140.458
lwrist 57.1507
lhand 77.6256 -2.08448
lfingers 7.12502
lthumb 69.4493 -1889.5
rfemur 0 0 0
rtibia 0
rfoot 0 0
rtoes 0
lfemur -28.8757 -63.1192 8.32919
ltibia 21.572
lfoot -89.8429 46.0129
ltoes -39.2288
1219
root 0.131542 18.6155 8.7919 18.5267 -8.02021 -6.62284
lowerback 4.40962 0.0861188 5.04161
upperback -3.66509 0.913068 7.93161
thorax -6.40483 0.416618 5.45486
lowerneck -2.56591 -11.1403 -12.856
upperneck 16.3649 -15.0396 5.46766
head 6.82215 -7.68522 2.62879
rclavicle -3.18055e-015 -6.36111e-014
rhumerus -39.2446 17.1379 -96.8192
rradius 143.511
rwrist -53.6168
rhand 66.8495 -67.9754
rfingers 7.12502
rthumb 74.6052 -10.4607
lclavicle -3.18055e-015 -6.36111e-014
lhumerus -49.5489 -17.878 113.165
lradius 140.705
lwrist 56.6927
lhand 77.3486 -2.53801
lfingers 7.12502
lthumb 69.6352 -1889.4
rfemur 0 0 0
rtibia 0
rfoot 0 0
rtoes 0
lfemur -27.6332 -60.7952 6.50911
ltibia 21.3877
lfoot -85.4799 46.8624
ltoes -40.8148
1220
root 0.131154 18.6221 8.79488 18.4117 -7.58247 -6.19589
lowerback 4.21557 0.0340576 5.42489
upperback -3.60815 0.838534 7.81511
thorax -6.22018 0.360225 5.11428
lowerneck -3.09329 -10.9168 -12.3408
upperneck 16.5417 -14.6211 4.89202
head 6.84557 -7.48293 2.38723
rclavicle -6.75868e-015 -4.45278e-014
rhumerus -38.8459 17.2457 -96.9519
rradius 143.323
rwrist -53.7897
rhand 67.0705 -67.9234
rfingers 7.12502
rthumb 74.5559 -9.62758
lclavicle -6.75868e-015 -4.45278e-014
lhumerus -49.4148 -18.1586 112.467
lradius 140.821
lwrist 56.3875
lhand 76.7528 -2.90864
lfingers 7.12502
lthumb 70.0281 -1888.55
rfemur 0 0 0
rtibia 0
rfoot 0 0
rtoes 0
lfemur -26.4226 -57.8383 4.7376
ltibia 21.1248
lfoot -80.008 47.4211
ltoes -42.444
